<?xml version="1.0" standalone="no"?>
<!DOCTYPE svg PUBLIC "-//W3C//DTD SVG 1.1//EN"
  "http://www.w3.org/Graphics/SVG/1.1/DTD/svg11.dtd">
<svg width="27.399999618530273mm" height="27.40000057220459mm" viewBox="-13.699999809265137 6.300000190734863 27.399999618530273 27.40000057220459" xmlns="http://www.w3.org/2000/svg" version="1.1">
	<title>svgOutput</title>
	<desc>made with tinkercad</desc>
<path d="M -3.924999952316284 32.077999114990234 L -7.465000152587891 30.274999618530273 L -10.274999618530273 27.46500015258789 L -12.07800006866455 23.924999237060547 L -12.699999809265137 20 L -12.126967430114746 16.384000778198242 L -12.07800006866455 16.075000762939453 L -10.274999618530273 12.53499984741211 L -7.465000152587891 9.725000381469727 L -3.924999952316284 7.921999931335449 L 0 7.300000190734863 L 3.924999952316284 7.921999931335449 L 7.465000152587891 9.725000381469727 L 10.274999618530273 12.53499984741211 L 12.07800006866455 16.075000762939453 L 12.126967430114746 16.384000778198242 L 12.699999809265137 20 L 12.564824104309082 20.85300064086914 L 12.07800006866455 23.924999237060547 L 10.274999618530273 27.46500015258789 L 7.465000152587891 30.274999618530273 L 3.924999952316284 32.077999114990234 L 0 32.70000076293945 L -0.8529999852180481 32.564823150634766 L -3.924999952316284 32.077999114990234 M -0.8119999766349792 19.736000061035156 L -0.8529999852180481 20 L -0.8119999766349792 20.263999938964844 L -0.7012773156166077 20.479999542236328 L -0.6899999976158142 20.50200080871582 L -0.5019999742507935 20.690000534057617 L -0.2639999985694885 20.812000274658203 L 0 20.85300064086914 L 0.2639999985694885 20.812000274658203 L 0.5019999742507935 20.690000534057617 L 0.6899999976158142 20.50200080871582 L 0.7012773156166077 20.479999542236328 L 0.8119999766349792 20.263999938964844 L 0.8529999852180481 20 L 0.8119999766349792 19.736000061035156 L 0.6899999976158142 19.49799919128418 L 0.5019999742507935 19.309999465942383 L 0.2639999985694885 19.187999725341797 L 0 19.14699935913086 L -0.2639999985694885 19.187999725341797 L -0.5019999742507935 19.309999465942383 L -0.6899999976158142 19.49799919128418 L -0.8119999766349792 19.736000061035156 z" fill="none" stroke="rgb(255,0,0)" stroke-width="0.001mm" />
</svg>