<?xml version="1.0" standalone="no"?>
<!DOCTYPE svg PUBLIC "-//W3C//DTD SVG 1.1//EN"
  "http://www.w3.org/Graphics/SVG/1.1/DTD/svg11.dtd">
<svg width="22.1917667388916mm" height="22.1917667388916mm" viewBox="-11.0958833694458 -11.0958833694458 22.1917667388916 22.1917667388916" xmlns="http://www.w3.org/2000/svg" version="1.1">
	<title>svgOutput</title>
	<desc>made with tinkercad</desc>
<path d="M -8.16739559173584 5.934278964996338 L -9.225534439086914 3.8572442531585693 L -9.601534843444824 3.1194534301757812 L -9.731058120727539 2.3015987873077393 L -10.0958833694458 1.1102230246251565e-16 L -9.731058120727539 -2.3015987873077393 L -9.601595878601074 -3.119070053100586 L -9.601534843444824 -3.1194534301757812 L -9.225534439086914 -3.8572442531585693 L -8.16739559173584 -5.934278964996338 L -6.558878421783447 -7.5427961349487305 L -5.935051918029785 -8.166622161865234 L -5.934278964996338 -8.16739559173584 L -3.906135082244873 -9.200627326965332 L -3.8572442531585693 -9.225534439086914 L -3.1194534301757812 -9.601534843444824 L -2.3015987873077393 -9.731058120727539 L -1.1382124660375224e-14 -10.0958833694458 L 2.3015987873077393 -9.731058120727539 L 3.1194534301757812 -9.601534843444824 L 3.8572442531585693 -9.225534439086914 L 5.934278964996338 -8.16739559173584 L 5.935051918029785 -8.166622161865234 L 8.166622161865234 -5.935051918029785 L 8.16739559173584 -5.934278964996338 L 9.200627326965332 -3.906135082244873 L 9.225534439086914 -3.8572442531585693 L 9.601534843444824 -3.1194534301757812 L 9.731058120727539 -2.3015987873077393 L 9.957788467407227 -0.8712117075920104 L 10.0958833694458 1.1102230246251565e-16 L 9.731058120727539 2.3015987873077393 L 9.601534843444824 3.1194534301757812 L 9.225534439086914 3.8572442531585693 L 8.16739559173584 5.934278964996338 L 8.166622161865234 5.935051918029785 L 6.558878421783447 7.5427961349487305 L 5.935051918029785 8.166622161865234 L 5.934278964996338 8.16739559173584 L 3.8572442531585693 9.225534439086914 L 3.1197798252105713 9.60136890411377 L 3.1194534301757812 9.601534843444824 L 2.3015987873077393 9.731058120727539 L -1.1382124660375224e-14 10.0958833694458 L -2.3015987873077393 9.731058120727539 L -3.1194534301757812 9.601534843444824 L -3.8572442531585693 9.225534439086914 L -3.906135082244873 9.200627326965332 L -5.934278964996338 8.16739559173584 L -5.935051918029785 8.166622161865234 L -6.558878421783447 7.5427961349487305 L -8.166622161865234 5.935051918029785 L -8.16739559173584 5.934278964996338 M 6.271999835968018 4.557000160217285 L 7.373000144958496 2.3959999084472656 L 7.751999855041504 1.1102230246251565e-16 L 7.373000144958496 -2.3959999084472656 L 6.271999835968018 -4.557000160217285 L 4.557000160217285 -6.271999835968018 L 2.3959999084472656 -7.373000144958496 L 0 -7.752999782562256 L -2.3959999084472656 -7.373000144958496 L -4.557000160217285 -6.271999835968018 L -6.271999835968018 -4.557000160217285 L -7.373000144958496 -2.3959999084472656 L -7.751999855041504 1.1102230246251565e-16 L -7.373000144958496 2.3959999084472656 L -6.271999835968018 4.557000160217285 L -4.557000160217285 6.271999835968018 L -2.3959999084472656 7.373000144958496 L 0 7.752999782562256 L 2.3959999084472656 7.373000144958496 L 4.557000160217285 6.271999835968018 L 6.271999835968018 4.557000160217285 z" fill="none" stroke="rgb(255,0,0)" stroke-width="0.001mm" />
</svg>