<?xml version="1.0" standalone="no"?>
<!DOCTYPE svg PUBLIC "-//W3C//DTD SVG 1.1//EN"
  "http://www.w3.org/Graphics/SVG/1.1/DTD/svg11.dtd">
<svg width="22.191768050193787mm" height="22.19176721572876mm" viewBox="-0.5958837270736694 -7.595883846282959 22.191768050193787 22.19176721572876" xmlns="http://www.w3.org/2000/svg" version="1.1">
	<title>svgOutput</title>
	<desc>made with tinkercad</desc>
<path d="M 20.595884323120117 3.5 L 20.595722198486328 3.5010180473327637 L 20.466360092163086 4.317854881286621 L 20.10153579711914 6.619453430175781 L 19.725534439086914 7.35724401473999 L 18.667394638061523 9.434279441833496 L 18.666622161865234 9.435051918029785 L 18.25200080871582 9.849674224853516 L 18.04534912109375 10.05632495880127 L 16.848674774169922 11.253000259399414 L 16.43427848815918 11.66739559173584 L 16.384000778198242 11.693018913269043 L 15.696488380432129 12.043395042419434 L 13.619453430175781 13.101534843444824 L 12.80159854888916 13.231058120727539 L 10.5 13.5958833694458 L 10.498981475830078 13.595722198486328 L 9.682145118713379 13.466360092163086 L 8.192000389099121 13.230157852172852 L 7.380546569824219 13.101534843444824 L 6.64275598526001 12.725534439086914 L 4.565721035003662 11.66739559173584 L 4.564948081970215 11.666622161865234 L 4.151325702667236 11.253000259399414 L 3.941121816635132 11.04279613494873 L 2.747999906539917 9.849674224853516 L 2.3326046466827393 9.434279441833496 L 1.9566045999526978 8.696488380432129 L 0.898465096950531 6.619453430175781 L 0.7689418792724609 5.801599025726318 L 0.40411627292633057 3.5 L 0.404277503490448 3.4989819526672363 L 0.5336395502090454 2.682145357131958 L 0.898465096950531 0.3805465102195741 L 1.0924029350280762 1.1102230246251565e-16 L 1.2744650840759277 -0.35724419355392445 L 2.3326046466827393 -2.434278964996338 L 2.3333775997161865 -2.435051918029785 L 2.747999906539917 -2.8496744632720947 L 2.95465087890625 -3.0563251972198486 L 4.151325702667236 -4.252999782562256 L 4.565721035003662 -4.667395114898682 L 5.303511619567871 -5.043395519256592 L 7.380546569824219 -6.101534843444824 L 8.19840145111084 -6.231058120727539 L 10.5 -6.595883846282959 L 10.501018524169922 -6.595722675323486 L 11.317854881286621 -6.466360569000244 L 13.619453430175781 -6.101534843444824 L 14.357244491577148 -5.725534915924072 L 16.384000778198242 -4.693009853363037 L 16.43427848815918 -4.667395114898682 L 16.848674774169922 -4.252999782562256 L 18.25200080871582 -2.8496744632720947 L 18.667394638061523 -2.434278964996338 L 19.04339599609375 -1.696488380432129 L 19.90766716003418 1.1102230246251565e-16 L 20.10153579711914 0.3805465102195741 L 20.23105812072754 1.1984012126922607 L 20.595884323120117 3.5 M 17.87299919128418 5.895999908447266 L 18.25200080871582 3.5 L 17.87299919128418 1.1039999723434448 L 17.310527801513672 1.1102230246251565e-16 L 16.77199935913086 -1.0570000410079956 L 16.384000778198242 -1.4450000524520874 L 15.057000160217285 -2.7720000743865967 L 12.895999908447266 -3.872999906539917 L 10.5 -4.252999782562256 L 8.104000091552734 -3.872999906539917 L 5.942999839782715 -2.7720000743865967 L 4.228000164031982 -1.0570000410079956 L 3.6894729137420654 1.1102230246251565e-16 L 3.127000093460083 1.1039999723434448 L 2.747999906539917 3.5 L 3.127000093460083 5.895999908447266 L 4.228000164031982 8.057000160217285 L 5.942999839782715 9.772000312805176 L 8.104000091552734 10.873000144958496 L 8.192000389099121 10.886956214904785 L 10.5 11.253000259399414 L 12.895999908447266 10.873000144958496 L 15.057000160217285 9.772000312805176 L 16.384000778198242 8.444999694824219 L 16.77199935913086 8.057000160217285 L 17.87299919128418 5.895999908447266 z" fill="none" stroke="rgb(255,0,0)" stroke-width="0.001mm" />
</svg>